name C:/MyDriveSym/Projects/mobilecap/Data\Session20210827_0002\mocap\ForceDataProcessed\walkingTS2_forces.mot
datacolumns 19
datarows 27
range 1.11700000 1.13000000
endheader 
time	R_ground_force_vx	R_ground_force_vy	R_ground_force_vz	R_ground_force_px	R_ground_force_py	R_ground_force_pz	R_ground_torque_x	R_ground_torque_y	R_ground_torque_z	L_ground_force_vx	L_ground_force_vy	L_ground_force_vz	L_ground_force_px	L_ground_force_py	L_ground_force_pz	L_ground_torque_x	L_ground_torque_y	L_ground_torque_z	
          1.11700000	          0.00000000	          0.00000000	          0.00000000	          1.23765600	          0.00000000	         -0.15369000	          0.00000000	          0.00000000	          0.00000000	         48.17712700	        607.01981200	         12.12577700	          0.97704300	          0.00600000	         -0.24165900	          0.00000000	          4.52538500	          0.00000000	
          1.11750000	          0.00000000	          0.00000000	          0.00000000	          1.23879100	          0.00000000	         -0.15371000	          0.00000000	          0.00000000	          0.00000000	         48.50345800	        607.50365300	         12.19095300	          0.97710200	          0.00600000	         -0.24167200	          0.00000000	          4.52700900	          0.00000000	
          1.11800000	          0.00000000	          0.00000000	          0.00000000	          1.23992600	          0.00000000	         -0.15372900	          0.00000000	          0.00000000	          0.00000000	         48.83045800	        607.98757100	         12.25583500	          0.97716100	          0.00600000	         -0.24168500	          0.00000000	          4.52863700	          0.00000000	
          1.11850000	          0.00000000	          0.00000000	          0.00000000	          1.24106100	          0.00000000	         -0.15374900	          0.00000000	          0.00000000	          0.00000000	         49.15812100	        608.47150600	         12.32041300	          0.97721900	          0.00600000	         -0.24169800	          0.00000000	          4.53026800	          0.00000000	
          1.11900000	          0.00000000	          0.00000000	          0.00000000	          1.24219600	          0.00000000	         -0.15376900	          0.00000000	          0.00000000	          0.00000000	         49.48644300	        608.95539900	         12.38467900	          0.97727700	          0.00600000	         -0.24171200	          0.00000000	          4.53190200	          0.00000000	
          1.11950000	          0.00000000	          0.00000000	          0.00000000	          1.24333100	          0.00000000	         -0.15378900	          0.00000000	          0.00000000	          0.00000000	         49.81541800	        609.43919000	         12.44862100	          0.97733600	          0.00600000	         -0.24172500	          0.00000000	          4.53354100	          0.00000000	
          1.12000000	          0.00000000	          0.00000000	          0.00000000	          1.24446600	          0.00000000	         -0.15380900	          0.00000000	          0.00000000	          0.00000000	         50.14504100	        609.92281900	         12.51223100	          0.97739400	          0.00600000	         -0.24173800	          0.00000000	          4.53518200	          0.00000000	
          1.12050000	          0.00000000	          0.00000000	          0.00000000	          1.24560100	          0.00000000	         -0.15382800	          0.00000000	          0.00000000	          0.00000000	         50.47530700	        610.40622500	         12.57549800	          0.97745200	          0.00600000	         -0.24175100	          0.00000000	          4.53682800	          0.00000000	
          1.12100000	          0.00000000	          0.00000000	          0.00000000	          1.24673600	          0.00000000	         -0.15384800	          0.00000000	          0.00000000	          0.00000000	         50.80621100	        610.88934700	         12.63841400	          0.97751000	          0.00600000	         -0.24176400	          0.00000000	          4.53847700	          0.00000000	
          1.12150000	          0.00000000	          0.00000000	          0.00000000	          1.24787100	          0.00000000	         -0.15386800	          0.00000000	          0.00000000	          0.00000000	         51.13774500	        611.37212200	         12.70096800	          0.97756700	          0.00600000	         -0.24177800	          0.00000000	          4.54013100	          0.00000000	
          1.12200000	          0.00000000	          0.00000000	          0.00000000	          1.24900600	          0.00000000	         -0.15388800	          0.00000000	          0.00000000	          0.00000000	         51.46990400	        611.85448800	         12.76315100	          0.97762500	          0.00600000	         -0.24179100	          0.00000000	          4.54178900	          0.00000000	
          1.12250000	          0.00000000	          0.00000000	          0.00000000	          1.25014100	          0.00000000	         -0.15390800	          0.00000000	          0.00000000	          0.00000000	         51.80268200	        612.33638300	         12.82495400	          0.97768300	          0.00600000	         -0.24180400	          0.00000000	          4.54345100	          0.00000000	
          1.12300000	          0.00000000	          0.00000000	          0.00000000	          1.25127600	          0.00000000	         -0.15392700	          0.00000000	          0.00000000	          0.00000000	         52.13607300	        612.81774100	         12.88636700	          0.97774000	          0.00600000	         -0.24181800	          0.00000000	          4.54511700	          0.00000000	
          1.12350000	          0.00000000	          0.00000000	          0.00000000	          1.25241100	          0.00000000	         -0.15394700	          0.00000000	          0.00000000	          0.00000000	         52.47007000	        613.29850000	         12.94737900	          0.97779700	          0.00600000	         -0.24183100	          0.00000000	          4.54678700	          0.00000000	
          1.12400000	          0.00000000	          0.00000000	          0.00000000	          1.25354600	          0.00000000	         -0.15396700	          0.00000000	          0.00000000	          0.00000000	         52.80466700	        613.77859500	         13.00798300	          0.97785500	          0.00600000	         -0.24184400	          0.00000000	          4.54846200	          0.00000000	
          1.12450000	          0.00000000	          0.00000000	          0.00000000	          1.25468100	          0.00000000	         -0.15398700	          0.00000000	          0.00000000	          0.00000000	         53.13985600	        614.25795900	         13.06816800	          0.97791200	          0.00600000	         -0.24185800	          0.00000000	          4.55014100	          0.00000000	
          1.12500000	          0.00000000	          0.00000000	          0.00000000	          1.25581600	          0.00000000	         -0.15400700	          0.00000000	          0.00000000	          0.00000000	         53.47563000	        614.73652900	         13.12792500	          0.97796900	          0.00600000	         -0.24187100	          0.00000000	          4.55182500	          0.00000000	
          1.12550000	          0.00000000	          0.00000000	          0.00000000	          1.25695100	          0.00000000	         -0.15402600	          0.00000000	          0.00000000	          0.00000000	         53.81198300	        615.21423700	         13.18724400	          0.97802600	          0.00600000	         -0.24188500	          0.00000000	          4.55351300	          0.00000000	
          1.12600000	          0.00000000	          0.00000000	          0.00000000	          1.25808700	          0.00000000	         -0.15404600	          0.00000000	          0.00000000	          0.00000000	         54.14890700	        615.69101800	         13.24611700	          0.97808200	          0.00600000	         -0.24189800	          0.00000000	          4.55520600	          0.00000000	
          1.12650000	          0.00000000	          0.00000000	          0.00000000	          1.25922200	          0.00000000	         -0.15406600	          0.00000000	          0.00000000	          0.00000000	         54.48639300	        616.16680300	         13.30453300	          0.97813900	          0.00600000	         -0.24191200	          0.00000000	          4.55690300	          0.00000000	
          1.12700000	          0.00000000	          0.00000000	          0.00000000	          1.26035700	          0.00000000	         -0.15408600	          0.00000000	          0.00000000	          0.00000000	         54.82443500	        616.64152600	         13.36248300	          0.97819600	          0.00600000	         -0.24192500	          0.00000000	          4.55860500	          0.00000000	
          1.12750000	          0.00000000	          0.00000000	          0.00000000	          1.26149200	          0.00000000	         -0.15410600	          0.00000000	          0.00000000	          0.00000000	         55.16302500	        617.11511700	         13.41995900	          0.97825200	          0.00600000	         -0.24193900	          0.00000000	          4.56031200	          0.00000000	
          1.12800000	          0.00000000	          0.00000000	          0.00000000	          1.26262700	          0.00000000	         -0.15412500	          0.00000000	          0.00000000	          0.00000000	         55.50215400	        617.58751000	         13.47695100	          0.97830800	          0.00600000	         -0.24195200	          0.00000000	          4.56202300	          0.00000000	
          1.12850000	          0.00000000	          0.00000000	          0.00000000	          1.26376200	          0.00000000	         -0.15414500	          0.00000000	          0.00000000	          0.00000000	         55.84181400	        618.05863400	         13.53344900	          0.97836500	          0.00600000	         -0.24196600	          0.00000000	          4.56373900	          0.00000000	
          1.12900000	          0.00000000	          0.00000000	          0.00000000	          1.26489700	          0.00000000	         -0.15416500	          0.00000000	          0.00000000	          0.00000000	         56.18199700	        618.52842100	         13.58944500	          0.97842100	          0.00600000	         -0.24197900	          0.00000000	          4.56546000	          0.00000000	
          1.12950000	          0.00000000	          0.00000000	          0.00000000	          1.26603200	          0.00000000	         -0.15418500	          0.00000000	          0.00000000	          0.00000000	         56.52269300	        618.99680000	         13.64492900	          0.97847700	          0.00600000	         -0.24199300	          0.00000000	          4.56718500	          0.00000000	
          1.13000000	          0.00000000	          0.00000000	          0.00000000	          1.26716700	          0.00000000	         -0.15420400	          0.00000000	          0.00000000	          0.00000000	         56.86389400	        619.46370100	         13.69989200	          0.97853200	          0.00600000	         -0.24200600	          0.00000000	          4.56891500	          0.00000000	
